<svg width="183" height="80" viewBox="0 0 183 80" fill="none" xmlns="http://www.w3.org/2000/svg">
<rect width="183" height="80" fill="black"/>
<path d="M25.7034 53.1494L24.5023 51.4184H25.6469L26.2898 52.3721L26.9256 51.4184H28.0349L26.8338 53.1281L28.1832 55.071H27.0387L26.2757 53.9195L25.5126 55.071H24.3893L25.7034 53.1494Z" fill="#E62B1E"/>
<path d="M32.9376 52.9089H29.3697V52.1529H32.9376V52.9089ZM32.9376 54.4208H29.3697V53.6649H32.9376V54.4208Z" fill="white"/>
<path d="M35.6714 50.8531H34.6682V50.0264H35.6714V50.8531ZM34.6682 51.4183H35.6714V55.0709H34.6682V51.4183Z" fill="white"/>
<path d="M36.3213 51.4183H37.2752V51.927H37.2963C37.415 51.7388 37.5799 51.5842 37.7754 51.4778C37.9708 51.3715 38.1902 51.3169 38.4126 51.3194C39.4794 51.3194 39.7479 51.9199 39.7479 52.8243V55.071H38.7446V53.0079C38.7446 52.4074 38.568 52.1107 38.1017 52.1107C37.5577 52.1107 37.3246 52.4145 37.3246 53.1564V55.071H36.3213V51.4183Z" fill="white"/>
<path d="M42.9763 54.6047H42.9622C42.729 55.0002 42.3193 55.1698 41.8529 55.1698C40.7508 55.1698 40.2138 54.2231 40.2138 53.2128C40.2138 52.2307 40.7578 51.3194 41.8317 51.3194C42.044 51.3125 42.2547 51.3586 42.4446 51.4536C42.6346 51.5486 42.7979 51.6894 42.9198 51.8634H42.9268V50.0264H43.93V55.0709H42.9763V54.6047ZM42.1002 52.0753C41.4431 52.0753 41.2171 52.6405 41.2171 53.2411C41.2171 53.8133 41.4785 54.4138 42.1002 54.4138C42.7643 54.4138 42.9622 53.8346 42.9622 53.234C42.9622 52.6405 42.7502 52.0753 42.1002 52.0753Z" fill="white"/>
<path d="M45.371 53.4883C45.3992 54.1242 45.7101 54.4138 46.2683 54.4138C46.6709 54.4138 46.996 54.1666 47.0595 53.9405H47.9427C47.66 54.8024 47.0595 55.1698 46.2329 55.1698C45.0813 55.1698 44.3678 54.3785 44.3678 53.2481C44.3678 52.153 45.1237 51.3193 46.2329 51.3193C47.4764 51.3193 48.0769 52.365 48.0063 53.4883H45.371ZM47.003 52.8525C46.9112 52.3438 46.6921 52.0753 46.2047 52.0753C46.0984 52.0695 45.992 52.0852 45.892 52.1215C45.7919 52.1577 45.7002 52.2138 45.6224 52.2864C45.5445 52.359 45.4821 52.4465 45.4389 52.5438C45.3958 52.6411 45.3726 52.746 45.371 52.8525H47.003Z" fill="white"/>
<path d="M48.4581 51.4183H49.412V51.8847H49.4261C49.5411 51.7025 49.7024 51.5541 49.8936 51.4548C50.0848 51.3554 50.2989 51.3087 50.5141 51.3194C51.6586 51.3194 52.1744 52.245 52.1744 53.2835C52.1744 54.2585 51.6375 55.1699 50.5706 55.1699C50.3568 55.1755 50.1449 55.1281 49.9538 55.032C49.7627 54.9358 49.5984 54.7939 49.4755 54.6188H49.4614V56.3568H48.4581V51.4183ZM51.1711 53.2553C51.1711 52.6759 50.938 52.0754 50.2951 52.0754C49.6381 52.0754 49.4261 52.6618 49.4261 53.2553C49.4261 53.8487 49.6522 54.4139 50.3021 54.4139C50.9592 54.4139 51.1711 53.8487 51.1711 53.2553Z" fill="white"/>
<path d="M53.4599 53.4883C53.4881 54.1242 53.799 54.4138 54.3572 54.4138C54.7598 54.4138 55.0849 54.1666 55.1484 53.9405H56.0316C55.7489 54.8024 55.1484 55.1698 54.3218 55.1698C53.1702 55.1698 52.4567 54.3785 52.4567 53.2481C52.4567 52.153 53.2126 51.3193 54.3218 51.3193C55.5652 51.3193 56.1658 52.365 56.0951 53.4883H53.4599ZM55.0919 52.8525C55.0001 52.3438 54.7811 52.0753 54.2935 52.0753C54.1873 52.0695 54.0809 52.0852 53.9809 52.1215C53.8808 52.1577 53.7891 52.2138 53.7113 52.2864C53.6334 52.359 53.571 52.4465 53.5279 52.5438C53.4847 52.6411 53.4615 52.746 53.4599 52.8525H55.0919Z" fill="white"/>
<path d="M56.547 51.4183H57.5009V51.927H57.522C57.6407 51.7388 57.8056 51.5842 58.0011 51.4778C58.1965 51.3715 58.4159 51.3169 58.6383 51.3194C59.7051 51.3194 59.9736 51.9199 59.9736 52.8243V55.071H58.9703V53.0079C58.9703 52.4074 58.7937 52.1107 58.3274 52.1107C57.7834 52.1107 57.5503 52.4145 57.5503 53.1564V55.071H56.547V51.4183Z" fill="white"/>
<path d="M63.202 54.6047H63.1878C62.9547 55.0002 62.5449 55.1698 62.0786 55.1698C60.9765 55.1698 60.4395 54.2231 60.4395 53.2128C60.4395 52.2307 60.9835 51.3194 62.0574 51.3194C62.2697 51.3125 62.4804 51.3586 62.6703 51.4536C62.8603 51.5486 63.0236 51.6894 63.1454 51.8634H63.1525V50.0264H64.1557V55.0709H63.202V54.6047ZM62.3259 52.0753C61.6688 52.0753 61.4427 52.6405 61.4427 53.2411C61.4427 53.8133 61.7042 54.4138 62.3259 54.4138C62.99 54.4138 63.1878 53.8346 63.1878 53.234C63.1878 52.6405 62.9759 52.0753 62.3259 52.0753Z" fill="white"/>
<path d="M65.5967 53.4883C65.6249 54.1242 65.9358 54.4138 66.494 54.4138C66.8966 54.4138 67.2217 54.1666 67.2852 53.9405H68.1684C67.8857 54.8024 67.2852 55.1698 66.4586 55.1698C65.307 55.1698 64.5935 54.3785 64.5935 53.2481C64.5935 52.153 65.3494 51.3193 66.4586 51.3193C67.702 51.3193 68.3026 52.365 68.2319 53.4883H65.5967ZM67.2287 52.8525C67.1369 52.3438 66.9178 52.0753 66.4303 52.0753C66.3241 52.0695 66.2177 52.0852 66.1177 52.1215C66.0176 52.1577 65.9259 52.2138 65.8481 52.2864C65.7702 52.359 65.7078 52.4465 65.6646 52.5438C65.6215 52.6411 65.5983 52.746 65.5967 52.8525H67.2287Z" fill="white"/>
<path d="M68.6838 51.4183H69.6377V51.927H69.6588C69.7775 51.7388 69.9425 51.5842 70.1379 51.4778C70.3333 51.3715 70.5527 51.3169 70.7751 51.3194C71.8419 51.3194 72.1104 51.9199 72.1104 52.8243V55.071H71.1072V53.0079C71.1072 52.4074 70.9305 52.1107 70.4643 52.1107C69.9203 52.1107 69.6871 52.4145 69.6871 53.1564V55.071H68.6838V51.4183Z" fill="white"/>
<path d="M74.0035 51.4183H74.7383V52.0895H74.0035V53.8982C74.0035 54.2373 74.0883 54.322 74.4274 54.322C74.5317 54.3231 74.6359 54.3137 74.7383 54.2938V55.078C74.544 55.1047 74.348 55.1165 74.1519 55.1134C73.5372 55.1134 73.0002 54.9721 73.0002 54.2444V52.0895H72.3927V51.4183H73.0002V50.3232H74.0035V51.4183Z" fill="white"/>
<path d="M75.1054 50.0264H76.1086V55.0709H75.1054V50.0264Z" fill="white"/>
<path d="M78.5601 55.5302C78.3411 56.1167 77.995 56.3568 77.3025 56.3568C77.0972 56.3556 76.892 56.3438 76.6879 56.3215V55.4949C76.8826 55.5175 77.0783 55.5293 77.2743 55.5302C77.6204 55.4949 77.7335 55.1346 77.6204 54.8449L76.3346 51.4184H77.4085L78.2351 53.9195H78.2492L79.0476 51.4184H80.0862L78.5601 55.5302Z" fill="white"/>
<path d="M83.8798 51.3193C85.0314 51.3193 85.7733 52.0824 85.7733 53.2481C85.7733 54.4067 85.0314 55.1698 83.8798 55.1698C82.7352 55.1698 81.9934 54.4067 81.9934 53.2481C81.9934 52.0824 82.7352 51.3193 83.8798 51.3193ZM83.8798 54.4138C84.5651 54.4138 84.77 53.8274 84.77 53.2481C84.77 52.6617 84.5651 52.0753 83.8798 52.0753C83.2016 52.0753 82.9967 52.6617 82.9967 53.2481C82.9967 53.8274 83.2016 54.4138 83.8798 54.4138Z" fill="white"/>
<path d="M86.1403 51.4182H87.0941V52.0965H87.1082C87.2072 51.8685 87.3698 51.6739 87.5766 51.5361C87.7833 51.3983 88.0255 51.323 88.274 51.3193C88.3483 51.3202 88.4221 51.3321 88.4929 51.3547V52.2872C88.3743 52.2636 88.2536 52.2518 88.1326 52.252C87.3979 52.252 87.1436 52.7818 87.1436 53.4247V55.0709H86.1403V51.4182Z" fill="white"/>
<path d="M92.2584 54.8377C92.2584 55.4383 92.0464 56.4556 90.365 56.4556C89.6443 56.4556 88.8036 56.1166 88.7542 55.2829H89.7503C89.8422 55.6573 90.1459 55.7845 90.4992 55.7845C91.0574 55.7845 91.3117 55.4029 91.3046 54.8801V54.3997H91.2905C91.1735 54.5816 91.0108 54.7296 90.8186 54.8288C90.6264 54.928 90.4115 54.9749 90.1954 54.9649C89.1003 54.9649 88.634 54.1312 88.634 53.128C88.634 52.1813 89.1781 51.3193 90.2025 51.3193C90.6829 51.3193 91.0503 51.4819 91.2905 51.9057H91.3046V51.4182H92.2584V54.8377ZM91.3046 53.1987C91.3046 52.6051 91.0997 52.0753 90.4498 52.0753C89.8846 52.0753 89.6373 52.5699 89.6373 53.1139C89.6373 53.6367 89.8351 54.209 90.4498 54.209C91.0221 54.209 91.3046 53.7214 91.3046 53.1987Z" fill="white"/>
<path d="M92.7385 52.5416C92.7951 51.6019 93.6358 51.3193 94.4553 51.3193C95.1831 51.3193 96.0591 51.4819 96.0591 52.3579V54.2584C96.0591 54.5904 96.0944 54.9225 96.1863 55.0709H95.1689C95.1312 54.9564 95.1074 54.8378 95.0983 54.7176C94.9342 54.8717 94.7408 54.9912 94.5296 55.0689C94.3184 55.1465 94.0937 55.1809 93.8689 55.1698C93.1765 55.1698 92.6255 54.8236 92.6255 54.0747C92.6255 53.2481 93.2472 53.0503 93.8689 52.9655C94.4836 52.8736 95.0559 52.8949 95.0559 52.4851C95.0559 52.0541 94.7591 51.9905 94.4058 51.9905C94.0244 51.9905 93.777 52.1459 93.7418 52.5416H92.7385ZM95.0559 53.2834C94.8863 53.4318 94.533 53.4389 94.2222 53.4954C93.9113 53.559 93.6287 53.6649 93.6287 54.0323C93.6287 54.4067 93.9184 54.4986 94.2434 54.4986C95.0276 54.4986 95.0559 53.8769 95.0559 53.6579V53.2834Z" fill="white"/>
<path d="M96.6946 51.4183H97.6485V51.927H97.6696C97.7884 51.7388 97.9533 51.5842 98.1487 51.4778C98.3441 51.3715 98.5635 51.3169 98.786 51.3194C99.8527 51.3194 100.121 51.9199 100.121 52.8243V55.071H99.118V53.0079C99.118 52.4074 98.9414 52.1107 98.4751 52.1107C97.9311 52.1107 97.6979 52.4145 97.6979 53.1564V55.071H96.6946V51.4183Z" fill="white"/>
<path d="M101.633 50.8531H100.63V50.0264H101.633V50.8531ZM100.63 51.4183H101.633V55.0709H100.63V51.4183Z" fill="white"/>
<path d="M102.057 54.3151L103.957 52.1743H102.198V51.4184H105.278V52.1743L103.378 54.3151H105.412V55.071H102.057V54.3151Z" fill="white"/>
<path d="M106.635 53.4883C106.663 54.1242 106.974 54.4138 107.532 54.4138C107.934 54.4138 108.26 54.1666 108.323 53.9405H109.206C108.924 54.8024 108.323 55.1698 107.496 55.1698C106.345 55.1698 105.631 54.3785 105.631 53.2481C105.631 52.153 106.387 51.3193 107.496 51.3193C108.74 51.3193 109.34 52.365 109.27 53.4883H106.635ZM108.267 52.8525C108.175 52.3438 107.956 52.0753 107.468 52.0753C107.362 52.0695 107.256 52.0852 107.156 52.1215C107.055 52.1577 106.964 52.2138 106.886 52.2864C106.808 52.359 106.746 52.4465 106.703 52.5438C106.659 52.6411 106.636 52.746 106.635 52.8525H108.267Z" fill="white"/>
<path d="M112.329 54.6047H112.315C112.081 55.0002 111.672 55.1698 111.205 55.1698C110.103 55.1698 109.566 54.2231 109.566 53.2128C109.566 52.2307 110.11 51.3194 111.184 51.3194C111.397 51.3125 111.607 51.3586 111.797 51.4536C111.987 51.5486 112.15 51.6894 112.272 51.8634H112.279V50.0264H113.283V55.0709H112.329V54.6047ZM111.453 52.0753C110.796 52.0753 110.57 52.6405 110.57 53.2411C110.57 53.8133 110.831 54.4138 111.453 54.4138C112.117 54.4138 112.315 53.8346 112.315 53.234C112.315 52.6405 112.103 52.0753 111.453 52.0753Z" fill="white"/>
<path d="M116.942 50.959H115.43V50.0264H119.563V50.959H118.051V55.0709H116.942V50.959Z" fill="white"/>
<path d="M120.001 50.0264H123.773V50.959H121.11V52.04H123.554V52.9019H121.11V54.1383H123.83V55.0709H120.001V50.0264Z" fill="white"/>
<path d="M124.296 50.0264H126.472C127.779 50.0264 128.761 50.846 128.761 52.5205C128.761 53.9829 128.012 55.0709 126.472 55.0709H124.296V50.0264ZM125.405 54.1383H126.394C127.037 54.1383 127.652 53.7427 127.652 52.6264C127.652 51.609 127.299 50.959 126.196 50.959H125.405V54.1383Z" fill="white"/>
<path d="M131.933 53.4883C131.961 54.1242 132.272 54.4138 132.83 54.4138C133.233 54.4138 133.558 54.1666 133.621 53.9405H134.504C134.222 54.8024 133.621 55.1698 132.795 55.1698C131.643 55.1698 130.93 54.3785 130.93 53.2481C130.93 52.153 131.686 51.3193 132.795 51.3193C134.038 51.3193 134.639 52.365 134.568 53.4883H131.933ZM133.565 52.8525C133.473 52.3438 133.254 52.0753 132.766 52.0753C132.66 52.0695 132.554 52.0852 132.454 52.1215C132.354 52.1577 132.262 52.2138 132.184 52.2864C132.106 52.359 132.044 52.4465 132.001 52.5438C131.958 52.6411 131.934 52.746 131.933 52.8525H133.565Z" fill="white"/>
<path d="M136.899 55.071H135.783L134.532 51.4184H135.585L136.355 53.9123H136.369L137.139 51.4184H138.136L136.899 55.071Z" fill="white"/>
<path d="M139.096 53.4883C139.124 54.1242 139.435 54.4138 139.993 54.4138C140.396 54.4138 140.721 54.1666 140.785 53.9405H141.668C141.385 54.8024 140.785 55.1698 139.958 55.1698C138.807 55.1698 138.093 54.3785 138.093 53.2481C138.093 52.153 138.849 51.3193 139.958 51.3193C141.202 51.3193 141.802 52.365 141.731 53.4883H139.096ZM140.728 52.8525C140.636 52.3438 140.417 52.0753 139.93 52.0753C139.824 52.0695 139.717 52.0852 139.617 52.1215C139.517 52.1577 139.425 52.2138 139.348 52.2864C139.27 52.359 139.207 52.4465 139.164 52.5438C139.121 52.6411 139.098 52.746 139.096 52.8525H140.728Z" fill="white"/>
<path d="M142.183 51.4183H143.137V51.927H143.158C143.277 51.7388 143.442 51.5842 143.637 51.4779C143.833 51.3715 144.052 51.317 144.275 51.3194C145.342 51.3194 145.61 51.9199 145.61 52.8243V55.071H144.607V53.0079C144.607 52.4074 144.43 52.1107 143.964 52.1107C143.42 52.1107 143.187 52.4145 143.187 53.1564V55.071H142.183V51.4183Z" fill="white"/>
<path d="M147.503 51.4183H148.238V52.0895H147.503V53.8982C147.503 54.2373 147.588 54.322 147.927 54.322C148.031 54.3232 148.135 54.3137 148.238 54.2938V55.078C148.044 55.1047 147.848 55.1166 147.651 55.1134C147.037 55.1134 146.5 54.9721 146.5 54.2444V52.0895H145.892V51.4183H146.5V50.3232H147.503V51.4183Z" fill="white"/>
<path d="M28.7272 33.337H24.0201V29.0321H38.6041V33.337H33.8988V45.8283H28.7272V33.337Z" fill="#E62B1E"/>
<path d="M39.4079 29.0321H53.5654V33.337H44.5829V35.43H53.5654V39.4304H44.5829V41.5236H53.5678V45.8283H39.4079V29.0321Z" fill="#E62B1E"/>
<path d="M54.4363 29.0321H62.9284C68.5262 29.0321 70.5045 33.1725 70.5045 37.4056C70.5045 42.5589 67.7758 45.8283 61.9179 45.8283H54.4363V29.0321ZM59.6109 41.5236H61.6347C64.8584 41.5236 65.3297 38.9116 65.3297 37.3337C65.3297 36.2772 64.9986 33.337 61.2579 33.337H59.6109V41.5236Z" fill="#E62B1E"/>
<path d="M77.9404 39.356L76.3617 36.7382L74.8223 39.356H71.0308L74.6303 34.0629L71.1643 29H74.9571L76.3617 31.5026L77.8066 29H81.5984L78.1334 34.0629L81.7329 39.356H77.9404Z" fill="#E62B1E"/>
<path d="M86 29.1866H88.177V45.2392H86V29.1866Z" fill="white"/>
<path d="M92.1626 29.1866H94.3395V45.2392H92.1626V29.1866Z" fill="white"/>
<path d="M109.416 29.1866V31.0989H104.055V45.2392H101.867V31.0989H96.5056V29.1866H109.416Z" fill="white"/>
<path d="M111.647 29.1866H119.012C120.225 29.1866 121.225 29.3651 122.012 29.7221C123.506 30.4069 124.254 31.6709 124.254 33.5139C124.254 34.4755 124.057 35.2623 123.663 35.8743C123.252 36.5024 122.682 37.0111 122.012 37.3495C122.561 37.5525 123.046 37.8997 123.414 38.3548C123.728 38.7701 123.903 39.444 123.939 40.3764L124.015 42.5291C124.019 42.9885 124.069 43.4462 124.167 43.8951C124.297 44.4051 124.528 44.7329 124.86 44.8785V45.2392H122.217C122.135 45.0697 122.077 44.8894 122.044 44.7037C121.982 44.2838 121.946 43.8605 121.936 43.4361L121.806 40.7589C121.755 39.7098 121.369 39.0068 120.647 38.6499C120.235 38.4532 119.589 38.3548 118.708 38.3548H113.802V45.2392H111.647V29.1866ZM118.784 36.5409C119.795 36.5409 120.595 36.3369 121.183 35.9289C121.771 35.521 122.066 34.7852 122.066 33.7215C122.066 32.5779 121.654 31.7984 120.831 31.3831C120.391 31.1645 119.802 31.0552 119.066 31.0552H113.802V36.5409H118.784Z" fill="white"/>
<path d="M132.03 29.1866H134.467L140.24 45.2392H137.878L136.265 40.4311H129.972L128.25 45.2392H126.041L132.03 29.1866ZM135.572 38.6608L133.156 31.5688L130.59 38.6608H135.572Z" fill="white"/>
<path d="M142.146 29.1866H145.232L149.803 42.7586L154.341 29.1866H157.395V45.2392H155.348V35.765C155.348 35.4372 155.355 34.8945 155.37 34.1368C155.384 33.3792 155.392 32.5669 155.392 31.6999L150.854 45.2392H148.72L144.149 31.6999V32.1917C144.149 32.5851 144.158 33.1843 144.176 33.9893C144.194 34.7943 144.203 35.3862 144.204 35.765V45.2392H142.146V29.1866Z" fill="white"/>
</svg>
